<svg aria-hidden="true" style="position:absolute;width:0;height:0" xmlns="http://www.w3.org/2000/svg" overflow="hidden"><defs><symbol id="icon-palm" viewBox="0 0 28 32"><path d="M28.013 9.674c-1.844-3.867-5.667-6.288-9.087-6.389a13.15 13.15 0 0 1 2.783-2.186c.469-.269.302-.941-.235-1.009-2.75-.202-5.466.639-7.31 2.286C12.018.661 8.866-.314 5.68.09c-.537.067-.637.841-.101 1.042 1.341.504 2.582 1.21 3.622 2.085-3.487.067-7.344 2.623-9.154 6.59-.201.471.302.941.738.672 2.247-1.244 4.728-2.152 6.841-2.32-2.649 1.715-4.024 5.212-3.655 8.709.067.538.771.672 1.006.202 1.844-3.497 4.359-5.38 6.874-5.447.972 9.28-.738 17.047-1.375 19.536-.101.437.201.841.637.841h5.634c.369 0 .637-.269.671-.639.034-.471.034-1.143.067-2.051l-2.113-.235c-.168-.034-.168-.403 0-.403l2.146-.235c0-1.11 0-2.455-.067-3.968l-2.18-.235c-.168-.034-.168-.403 0-.403l2.146-.235c-.034-1.21-.134-2.555-.235-3.934l-2.247-.269c-.168-.034-.168-.403 0-.403l2.18-.235a57.688 57.688 0 0 0-.436-3.968l-1.978-.336c-.168 0-.168-.404 0-.404l1.844-.202c-.101-.773-.235-1.547-.335-2.32 2.616.336 4.996 2.253 6.539 5.817.201.471.905.37 1.006-.134.738-3.867-.536-7.431-3.219-9.146 1.844.168 4.125 1.009 6.774 2.354.436.202.939-.269.704-.74z"/></symbol></defs></svg>